<svg xmlns="http://www.w3.org/2000/svg" width="1500" height="1040" viewBox="0 0 1500 1040">
<rect width="100%" height="100%" fill="#FFFFFF"/>
<style>text{font-family:Arial,Helvetica,sans-serif;fill:#17212B}.title{font-size:25px;font-weight:700}.subtitle{font-size:14px;fill:#4B5563}.panel{font-size:17px;font-weight:700}.axis{font-size:12px;fill:#4B5563}.legend{font-size:12px}.note{font-size:11px;fill:#6B7280}</style>
<text x="55.0" y="45.0" class="title" text-anchor="start">What computation best explains the model&#x27;s persistence?</text>
<text x="55.0" y="70.0" class="subtitle" text-anchor="start">Held-out continuation rollouts distinguish target decodability from decision use</text>
<text x="45.0" y="118.0" class="panel" text-anchor="start">A. The target is mostly common state value</text>
<line x1="107.0" y1="462.0" x2="717.0" y2="462.0" stroke="#E5E7EB" stroke-width="1"/>
<text x="98.0" y="466.0" class="axis" text-anchor="end">0</text>
<line x1="107.0" y1="373.3" x2="717.0" y2="373.3" stroke="#E5E7EB" stroke-width="1"/>
<text x="98.0" y="377.3" class="axis" text-anchor="end">10</text>
<line x1="107.0" y1="284.7" x2="717.0" y2="284.7" stroke="#E5E7EB" stroke-width="1"/>
<text x="98.0" y="288.7" class="axis" text-anchor="end">20</text>
<line x1="107.0" y1="196.0" x2="717.0" y2="196.0" stroke="#E5E7EB" stroke-width="1"/>
<text x="98.0" y="200.0" class="axis" text-anchor="end">30</text>
<line x1="107.0" y1="142.0" x2="717.0" y2="142.0" stroke="#E5E7EB" stroke-width="1"/>
<text x="98.0" y="146.0" class="axis" text-anchor="end">36</text>
<line x1="273.4" y1="462.0" x2="273.4" y2="467.0" stroke="#64748B" stroke-width="1"/>
<text x="273.4" y="482.0" class="axis" text-anchor="middle">Mean(QA,QB)</text>
<line x1="550.6" y1="462.0" x2="550.6" y2="467.0" stroke="#64748B" stroke-width="1"/>
<text x="550.6" y="482.0" class="axis" text-anchor="middle">Arm-choice premium</text>
<line x1="107.0" y1="142.0" x2="107.0" y2="462.0" stroke="#64748B" stroke-width="1.2"/>
<line x1="107.0" y1="462.0" x2="717.0" y2="462.0" stroke="#64748B" stroke-width="1.2"/>
<text x="412.0" y="505.0" class="axis" text-anchor="middle">Target component</text>
<text x="60.0" y="302.0" class="axis" text-anchor="middle" transform="rotate(-90 60 302.0)">Standard deviation (reward units)</text>
<rect x="218.4" y="195.3" width="110.0" height="266.7" fill="#7A5195" fill-opacity="0.9" stroke="none"/>
<text x="273.4" y="187.3" class="axis" text-anchor="middle">30.1</text>
<rect x="495.6" y="422.0" width="110.0" height="40.0" fill="#E69F00" fill-opacity="0.9" stroke="none"/>
<text x="550.6" y="414.0" class="axis" text-anchor="middle">4.5</text>
<text x="115.0" y="164.0" class="note" text-anchor="start">corr(Acontinue, mean Q) = 0.990</text>
<text x="760.0" y="118.0" class="panel" text-anchor="start">B. Probe misses the negative-value regime</text>
<line x1="822.0" y1="462.0" x2="1432.0" y2="462.0" stroke="#E5E7EB" stroke-width="1"/>
<text x="813.0" y="466.0" class="axis" text-anchor="end">-17</text>
<line x1="822.0" y1="392.6" x2="1432.0" y2="392.6" stroke="#E5E7EB" stroke-width="1"/>
<text x="813.0" y="396.6" class="axis" text-anchor="end">0</text>
<line x1="822.0" y1="287.7" x2="1432.0" y2="287.7" stroke="#E5E7EB" stroke-width="1"/>
<text x="813.0" y="291.7" class="axis" text-anchor="end">25</text>
<line x1="822.0" y1="182.7" x2="1432.0" y2="182.7" stroke="#E5E7EB" stroke-width="1"/>
<text x="813.0" y="186.7" class="axis" text-anchor="end">50</text>
<line x1="822.0" y1="142.0" x2="1432.0" y2="142.0" stroke="#E5E7EB" stroke-width="1"/>
<text x="813.0" y="146.0" class="axis" text-anchor="end">60</text>
<line x1="936.4" y1="462.0" x2="936.4" y2="467.0" stroke="#64748B" stroke-width="1"/>
<text x="936.4" y="482.0" class="axis" text-anchor="middle">Both negative</text>
<line x1="1127.0" y1="462.0" x2="1127.0" y2="467.0" stroke="#64748B" stroke-width="1"/>
<text x="1127.0" y="482.0" class="axis" text-anchor="middle">One positive</text>
<line x1="1317.6" y1="462.0" x2="1317.6" y2="467.0" stroke="#64748B" stroke-width="1"/>
<text x="1317.6" y="482.0" class="axis" text-anchor="middle">Both positive</text>
<line x1="822.0" y1="142.0" x2="822.0" y2="462.0" stroke="#64748B" stroke-width="1.2"/>
<line x1="822.0" y1="462.0" x2="1432.0" y2="462.0" stroke="#64748B" stroke-width="1.2"/>
<text x="1127.0" y="505.0" class="axis" text-anchor="middle">Reward condition</text>
<text x="775.0" y="302.0" class="axis" text-anchor="middle" transform="rotate(-90 775 302.0)">Mean continuation advantage</text>
<line x1="822.0" y1="392.6" x2="1432.0" y2="392.6" stroke="#6B7280" stroke-width="1.2" stroke-dasharray="5 5"/>
<rect x="891.4" y="392.6" width="42.0" height="35.8" fill="#7A5195" fill-opacity="0.9" stroke="none"/>
<rect x="939.4" y="329.6" width="42.0" height="63.0" fill="#E69F00" fill-opacity="0.9" stroke="none"/>
<rect x="1082.0" y="275.1" width="42.0" height="117.5" fill="#7A5195" fill-opacity="0.9" stroke="none"/>
<rect x="1130.0" y="294.4" width="42.0" height="98.2" fill="#E69F00" fill-opacity="0.9" stroke="none"/>
<rect x="1272.6" y="175.6" width="42.0" height="217.0" fill="#7A5195" fill-opacity="0.9" stroke="none"/>
<rect x="1320.6" y="246.3" width="42.0" height="146.3" fill="#E69F00" fill-opacity="0.9" stroke="none"/>
<line x1="830.0" y1="160.0" x2="852.0" y2="160.0" stroke="#7A5195" stroke-width="3"/>
<text x="858.0" y="164.0" class="legend" text-anchor="start">Rollout target</text>
<line x1="975.0" y1="160.0" x2="997.0" y2="160.0" stroke="#E69F00" stroke-width="3"/>
<text x="1003.0" y="164.0" class="legend" text-anchor="start">Ridge prediction</text>
<text x="45.0" y="583.0" class="panel" text-anchor="start">C. Persistence does not threshold at zero value</text>
<line x1="107.0" y1="927.0" x2="717.0" y2="927.0" stroke="#E5E7EB" stroke-width="1"/>
<text x="98.0" y="931.0" class="axis" text-anchor="end">.50</text>
<line x1="107.0" y1="799.0" x2="717.0" y2="799.0" stroke="#E5E7EB" stroke-width="1"/>
<text x="98.0" y="803.0" class="axis" text-anchor="end">.70</text>
<line x1="107.0" y1="671.0" x2="717.0" y2="671.0" stroke="#E5E7EB" stroke-width="1"/>
<text x="98.0" y="675.0" class="axis" text-anchor="end">.90</text>
<line x1="107.0" y1="607.0" x2="717.0" y2="607.0" stroke="#E5E7EB" stroke-width="1"/>
<text x="98.0" y="611.0" class="axis" text-anchor="end">1</text>
<line x1="273.4" y1="927.0" x2="273.4" y2="932.0" stroke="#64748B" stroke-width="1"/>
<text x="273.4" y="947.0" class="axis" text-anchor="middle">Negative</text>
<line x1="550.6" y1="927.0" x2="550.6" y2="932.0" stroke="#64748B" stroke-width="1"/>
<text x="550.6" y="947.0" class="axis" text-anchor="middle">Nonnegative</text>
<line x1="107.0" y1="607.0" x2="107.0" y2="927.0" stroke="#64748B" stroke-width="1.2"/>
<line x1="107.0" y1="927.0" x2="717.0" y2="927.0" stroke="#64748B" stroke-width="1.2"/>
<text x="412.0" y="970.0" class="axis" text-anchor="middle">Rollout continuation advantage</text>
<text x="60.0" y="767.0" class="axis" text-anchor="middle" transform="rotate(-90 60 767.0)">Mean model P(continue)</text>
<line x1="107.0" y1="927.0" x2="717.0" y2="927.0" stroke="#6B7280" stroke-width="1.2" stroke-dasharray="5 5"/>
<rect x="218.4" y="643.1" width="110.0" height="283.9" fill="#D55E00" fill-opacity="0.9" stroke="none"/>
<text x="273.4" y="635.1" class="axis" text-anchor="middle">0.944 (n=24)</text>
<rect x="495.6" y="633.2" width="110.0" height="293.8" fill="#009E73" fill-opacity="0.9" stroke="none"/>
<text x="550.6" y="625.2" class="axis" text-anchor="middle">0.959 (n=104)</text>
<text x="760.0" y="583.0" class="panel" text-anchor="start">D. Exact recent-state matches</text>
<line x1="822.0" y1="890.1" x2="1432.0" y2="890.1" stroke="#E5E7EB" stroke-width="1"/>
<text x="813.0" y="894.1" class="axis" text-anchor="end">Adv probe → advantage</text>
<line x1="822.0" y1="828.5" x2="1432.0" y2="828.5" stroke="#E5E7EB" stroke-width="1"/>
<text x="813.0" y="832.5" class="axis" text-anchor="end">Generic probe → advantage</text>
<line x1="822.0" y1="767.0" x2="1432.0" y2="767.0" stroke="#E5E7EB" stroke-width="1"/>
<text x="813.0" y="771.0" class="axis" text-anchor="end">Actual advantage → persist</text>
<line x1="822.0" y1="705.5" x2="1432.0" y2="705.5" stroke="#E5E7EB" stroke-width="1"/>
<text x="813.0" y="709.5" class="axis" text-anchor="end">Adv probe → persist</text>
<line x1="822.0" y1="643.9" x2="1432.0" y2="643.9" stroke="#E5E7EB" stroke-width="1"/>
<text x="813.0" y="647.9" class="axis" text-anchor="end">Generic probe → persist</text>
<line x1="822.0" y1="927.0" x2="822.0" y2="932.0" stroke="#64748B" stroke-width="1"/>
<text x="822.0" y="947.0" class="axis" text-anchor="middle">-0.2</text>
<line x1="934.9" y1="927.0" x2="934.9" y2="932.0" stroke="#64748B" stroke-width="1"/>
<text x="934.9" y="947.0" class="axis" text-anchor="middle">0</text>
<line x1="1160.7" y1="927.0" x2="1160.7" y2="932.0" stroke="#64748B" stroke-width="1"/>
<text x="1160.7" y="947.0" class="axis" text-anchor="middle">.4</text>
<line x1="1386.6" y1="927.0" x2="1386.6" y2="932.0" stroke="#64748B" stroke-width="1"/>
<text x="1386.6" y="947.0" class="axis" text-anchor="middle">.8</text>
<line x1="822.0" y1="607.0" x2="822.0" y2="927.0" stroke="#64748B" stroke-width="1.2"/>
<line x1="822.0" y1="927.0" x2="1432.0" y2="927.0" stroke="#64748B" stroke-width="1.2"/>
<text x="1127.0" y="970.0" class="axis" text-anchor="middle">Standardized coefficient</text>
<text x="775.0" y="767.0" class="axis" text-anchor="middle" transform="rotate(-90 775 767.0)">Relation</text>
<line x1="934.9" y1="607.0" x2="934.9" y2="927.0" stroke="#6B7280" stroke-width="1.2" stroke-dasharray="5 5"/>
<line x1="1163.5" y1="890.1" x2="1355.6" y2="890.1" stroke="#7A5195" stroke-width="2"/>
<circle cx="1259.6" cy="890.1" r="5.0" fill="#7A5195"/>
<line x1="1218.3" y1="828.5" x2="1403.8" y2="828.5" stroke="#E69F00" stroke-width="2"/>
<circle cx="1311.1" cy="828.5" r="5.0" fill="#E69F00"/>
<line x1="973.6" y1="767.0" x2="1212.8" y2="767.0" stroke="#009E73" stroke-width="2"/>
<circle cx="1093.2" cy="767.0" r="5.0" fill="#009E73"/>
<line x1="871.0" y1="705.5" x2="1144.6" y2="705.5" stroke="#D55E00" stroke-width="2"/>
<circle cx="1007.8" cy="705.5" r="5.0" fill="#D55E00"/>
<line x1="941.2" y1="643.9" x2="1223.7" y2="643.9" stroke="#6B7280" stroke-width="2"/>
<circle cx="1082.4" cy="643.9" r="5.0" fill="#6B7280"/>
<text x="1450.0" y="1020.0" class="note" text-anchor="end">Exact matches hold round, previous outcome, and loss streak fixed; errors cluster by episode.</text>
</svg>
