<svg xmlns="http://www.w3.org/2000/svg" width="1500" height="930" viewBox="0 0 1500 930">
<rect width="100%" height="100%" fill="#FFFFFF"/>
<style>text{font-family:Arial,Helvetica,sans-serif;fill:#17212B}.title{font-size:25px;font-weight:700}.subtitle{font-size:14px;fill:#4B5563}.panel{font-size:17px;font-weight:700}.axis{font-size:12px;fill:#4B5563}.legend{font-size:12px}.note{font-size:11px;fill:#6B7280}</style>
<text x="55.0" y="45.0" class="title" text-anchor="start">What computation controls persistence?</text>
<text x="55.0" y="70.0" class="subtitle" text-anchor="start">Matched-state causal steering and external payoff dissociation</text>
<text x="45.0" y="118.0" class="panel" text-anchor="start">A. Persistence direction is causally effective</text>
<line x1="107.0" y1="402.0" x2="717.0" y2="402.0" stroke="#E5E7EB" stroke-width="1"/>
<text x="98.0" y="406.0" class="axis" text-anchor="end">2.2</text>
<line x1="107.0" y1="142.0" x2="717.0" y2="142.0" stroke="#E5E7EB" stroke-width="1"/>
<text x="98.0" y="146.0" class="axis" text-anchor="end">4.6</text>
<line x1="157.8" y1="402.0" x2="157.8" y2="407.0" stroke="#64748B" stroke-width="1"/>
<text x="157.8" y="422.0" class="axis" text-anchor="middle">-1</text>
<line x1="412.0" y1="402.0" x2="412.0" y2="407.0" stroke="#64748B" stroke-width="1"/>
<text x="412.0" y="422.0" class="axis" text-anchor="middle">0</text>
<line x1="666.2" y1="402.0" x2="666.2" y2="407.0" stroke="#64748B" stroke-width="1"/>
<text x="666.2" y="422.0" class="axis" text-anchor="middle">+1</text>
<line x1="107.0" y1="142.0" x2="107.0" y2="402.0" stroke="#64748B" stroke-width="1.2"/>
<line x1="107.0" y1="402.0" x2="717.0" y2="402.0" stroke="#64748B" stroke-width="1.2"/>
<text x="412.0" y="445.0" class="axis" text-anchor="middle">Steering alpha</text>
<text x="60.0" y="272.0" class="axis" text-anchor="middle" transform="rotate(-90 60 272.0)">Persistence logit</text>
<polyline points="157.8,380.3 412.0,271.3 666.2,163.7" fill="none" stroke="#7A5195" stroke-width="3" stroke-linejoin="round" stroke-linecap="round"/>
<circle cx="157.8" cy="380.3" r="6.0" fill="#7A5195"/>
<circle cx="412.0" cy="271.3" r="6.0" fill="#7A5195"/>
<circle cx="666.2" cy="163.7" r="6.0" fill="#7A5195"/>
<text x="760.0" y="118.0" class="panel" text-anchor="start">B. External payoffs move the same states</text>
<line x1="822.0" y1="402.0" x2="1432.0" y2="402.0" stroke="#E5E7EB" stroke-width="1"/>
<text x="813.0" y="406.0" class="axis" text-anchor="end">-1.7</text>
<line x1="822.0" y1="142.0" x2="1432.0" y2="142.0" stroke="#E5E7EB" stroke-width="1"/>
<text x="813.0" y="146.0" class="axis" text-anchor="end">3.3</text>
<line x1="857.9" y1="402.0" x2="857.9" y2="407.0" stroke="#64748B" stroke-width="1"/>
<text x="857.9" y="422.0" class="axis" text-anchor="middle">-10</text>
<line x1="1037.3" y1="402.0" x2="1037.3" y2="407.0" stroke="#64748B" stroke-width="1"/>
<text x="1037.3" y="422.0" class="axis" text-anchor="middle">0</text>
<line x1="1216.7" y1="402.0" x2="1216.7" y2="407.0" stroke="#64748B" stroke-width="1"/>
<text x="1216.7" y="422.0" class="axis" text-anchor="middle">+10</text>
<line x1="1396.1" y1="402.0" x2="1396.1" y2="407.0" stroke="#64748B" stroke-width="1"/>
<text x="1396.1" y="422.0" class="axis" text-anchor="middle">+20</text>
<line x1="822.0" y1="142.0" x2="822.0" y2="402.0" stroke="#64748B" stroke-width="1.2"/>
<line x1="822.0" y1="402.0" x2="1432.0" y2="402.0" stroke="#64748B" stroke-width="1.2"/>
<text x="1127.0" y="445.0" class="axis" text-anchor="middle">STOP payoff</text>
<text x="775.0" y="272.0" class="axis" text-anchor="middle" transform="rotate(-90 775 272.0)">Persistence logit</text>
<polyline points="857.9,282.4 1037.3,336.8 1216.7,376.4 1396.1,391.7" fill="none" stroke="#D55E00" stroke-width="2" stroke-linejoin="round" stroke-linecap="round"/>
<circle cx="857.9" cy="282.4" r="4.0" fill="#D55E00"/>
<circle cx="1037.3" cy="336.8" r="4.0" fill="#D55E00"/>
<circle cx="1216.7" cy="376.4" r="4.0" fill="#D55E00"/>
<circle cx="1396.1" cy="391.7" r="4.0" fill="#D55E00"/>
<polyline points="857.9,214.7 1037.3,201.5 1216.7,366.7 1396.1,370.0" fill="none" stroke="#7A5195" stroke-width="2" stroke-linejoin="round" stroke-linecap="round"/>
<circle cx="857.9" cy="214.7" r="4.0" fill="#7A5195"/>
<circle cx="1037.3" cy="201.5" r="4.0" fill="#7A5195"/>
<circle cx="1216.7" cy="366.7" r="4.0" fill="#7A5195"/>
<circle cx="1396.1" cy="370.0" r="4.0" fill="#7A5195"/>
<polyline points="857.9,186.3 1037.3,152.3 1216.7,248.4 1396.1,357.8" fill="none" stroke="#009E73" stroke-width="2" stroke-linejoin="round" stroke-linecap="round"/>
<circle cx="857.9" cy="186.3" r="4.0" fill="#009E73"/>
<circle cx="1037.3" cy="152.3" r="4.0" fill="#009E73"/>
<circle cx="1216.7" cy="248.4" r="4.0" fill="#009E73"/>
<circle cx="1396.1" cy="357.8" r="4.0" fill="#009E73"/>
<line x1="830.0" y1="160.0" x2="852.0" y2="160.0" stroke="#D55E00" stroke-width="3"/>
<text x="858.0" y="164.0" class="legend" text-anchor="start">Continue -10</text>
<line x1="975.0" y1="160.0" x2="997.0" y2="160.0" stroke="#7A5195" stroke-width="3"/>
<text x="1003.0" y="164.0" class="legend" text-anchor="start">Continue +0</text>
<line x1="1120.0" y1="160.0" x2="1142.0" y2="160.0" stroke="#009E73" stroke-width="3"/>
<text x="1148.0" y="164.0" class="legend" text-anchor="start">Continue +10</text>
<text x="45.0" y="533.0" class="panel" text-anchor="start">C. Which representation follows each payoff?</text>
<line x1="107.0" y1="809.4" x2="717.0" y2="809.4" stroke="#E5E7EB" stroke-width="1"/>
<text x="98.0" y="813.4" class="axis" text-anchor="end">-.8</text>
<line x1="107.0" y1="687.0" x2="717.0" y2="687.0" stroke="#E5E7EB" stroke-width="1"/>
<text x="98.0" y="691.0" class="axis" text-anchor="end">0</text>
<line x1="107.0" y1="564.6" x2="717.0" y2="564.6" stroke="#E5E7EB" stroke-width="1"/>
<text x="98.0" y="568.6" class="axis" text-anchor="end">.8</text>
<line x1="194.1" y1="817.0" x2="194.1" y2="822.0" stroke="#64748B" stroke-width="1"/>
<text x="194.1" y="837.0" class="axis" text-anchor="middle">Behavior</text>
<line x1="339.4" y1="817.0" x2="339.4" y2="822.0" stroke="#64748B" stroke-width="1"/>
<text x="339.4" y="837.0" class="axis" text-anchor="middle">Generic</text>
<line x1="484.6" y1="817.0" x2="484.6" y2="822.0" stroke="#64748B" stroke-width="1"/>
<text x="484.6" y="837.0" class="axis" text-anchor="middle">Advantage</text>
<line x1="629.9" y1="817.0" x2="629.9" y2="822.0" stroke="#64748B" stroke-width="1"/>
<text x="629.9" y="837.0" class="axis" text-anchor="middle">Decision</text>
<line x1="107.0" y1="557.0" x2="107.0" y2="817.0" stroke="#64748B" stroke-width="1.2"/>
<line x1="107.0" y1="817.0" x2="717.0" y2="817.0" stroke="#64748B" stroke-width="1.2"/>
<text x="412.0" y="860.0" class="axis" text-anchor="middle">Outcome</text>
<text x="60.0" y="687.0" class="axis" text-anchor="middle" transform="rotate(-90 60 687.0)">Standardized effect</text>
<line x1="107.0" y1="687.0" x2="717.0" y2="687.0" stroke="#6B7280" stroke-width="1.2" stroke-dasharray="5 5"/>
<circle cx="175.3" cy="795.2" r="6.0" fill="#D55E00"/>
<circle cx="213.0" cy="605.5" r="6.0" fill="#009E73"/>
<circle cx="320.5" cy="617.7" r="6.0" fill="#D55E00"/>
<circle cx="358.3" cy="666.7" r="6.0" fill="#009E73"/>
<circle cx="465.7" cy="723.1" r="6.0" fill="#D55E00"/>
<circle cx="503.5" cy="646.3" r="6.0" fill="#009E73"/>
<circle cx="611.0" cy="791.6" r="6.0" fill="#D55E00"/>
<circle cx="648.7" cy="605.4" r="6.0" fill="#009E73"/>
<line x1="115.0" y1="575.0" x2="137.0" y2="575.0" stroke="#D55E00" stroke-width="3"/>
<text x="143.0" y="579.0" class="legend" text-anchor="start">STOP payoff</text>
<line x1="260.0" y1="575.0" x2="282.0" y2="575.0" stroke="#009E73" stroke-width="3"/>
<text x="288.0" y="579.0" class="legend" text-anchor="start">CONTINUE bonus</text>
<text x="760.0" y="533.0" class="panel" text-anchor="start">D. Encoding of CONTINUE minus STOP</text>
<line x1="822.0" y1="817.0" x2="1432.0" y2="817.0" stroke="#E5E7EB" stroke-width="1"/>
<text x="813.0" y="821.0" class="axis" text-anchor="end">0</text>
<line x1="822.0" y1="694.6" x2="1432.0" y2="694.6" stroke="#E5E7EB" stroke-width="1"/>
<text x="813.0" y="698.6" class="axis" text-anchor="end">.4</text>
<line x1="822.0" y1="572.3" x2="1432.0" y2="572.3" stroke="#E5E7EB" stroke-width="1"/>
<text x="813.0" y="576.3" class="axis" text-anchor="end">.8</text>
<line x1="909.1" y1="817.0" x2="909.1" y2="822.0" stroke="#64748B" stroke-width="1"/>
<text x="909.1" y="837.0" class="axis" text-anchor="middle">Behavior</text>
<line x1="1054.4" y1="817.0" x2="1054.4" y2="822.0" stroke="#64748B" stroke-width="1"/>
<text x="1054.4" y="837.0" class="axis" text-anchor="middle">Generic</text>
<line x1="1199.6" y1="817.0" x2="1199.6" y2="822.0" stroke="#64748B" stroke-width="1"/>
<text x="1199.6" y="837.0" class="axis" text-anchor="middle">Advantage</text>
<line x1="1344.9" y1="817.0" x2="1344.9" y2="822.0" stroke="#64748B" stroke-width="1"/>
<text x="1344.9" y="837.0" class="axis" text-anchor="middle">Decision</text>
<line x1="822.0" y1="557.0" x2="822.0" y2="817.0" stroke="#64748B" stroke-width="1.2"/>
<line x1="822.0" y1="817.0" x2="1432.0" y2="817.0" stroke="#64748B" stroke-width="1.2"/>
<text x="1127.0" y="860.0" class="axis" text-anchor="middle">Outcome</text>
<text x="775.0" y="687.0" class="axis" text-anchor="middle" transform="rotate(-90 775 687.0)">Within-state R²</text>
<rect x="867.1" y="577.3" width="84.0" height="239.7" fill="#E69F00" fill-opacity="0.9" stroke="none"/>
<text x="909.1" y="569.3" class="axis" text-anchor="middle">0.78</text>
<rect x="1012.4" y="791.6" width="84.0" height="25.4" fill="#E69F00" fill-opacity="0.9" stroke="none"/>
<text x="1054.4" y="783.6" class="axis" text-anchor="middle">0.08</text>
<rect x="1157.6" y="780.0" width="84.0" height="37.0" fill="#E69F00" fill-opacity="0.9" stroke="none"/>
<text x="1199.6" y="772.0" class="axis" text-anchor="middle">0.12</text>
<rect x="1302.9" y="587.2" width="84.0" height="229.8" fill="#E69F00" fill-opacity="0.9" stroke="none"/>
<text x="1344.9" y="579.2" class="axis" text-anchor="middle">0.75</text>
<text x="1450.0" y="910.0" class="note" text-anchor="end">All factorial comparisons replay identical underlying histories.</text>
</svg>
