<svg xmlns="http://www.w3.org/2000/svg" width="1500" height="620" viewBox="0 0 1500 620">
<rect width="100%" height="100%" fill="#FFFFFF"/>
<style>text{font-family:Arial,Helvetica,sans-serif;fill:#17212B}.title{font-size:25px;font-weight:700}.subtitle{font-size:14px;fill:#4B5563}.panel{font-size:17px;font-weight:700}.axis{font-size:12px;fill:#4B5563}.legend{font-size:12px}.note{font-size:11px;fill:#6B7280}</style>
<text x="55.0" y="45.0" class="title" text-anchor="start">What does the Monte Carlo probe represent?</text>
<text x="55.0" y="70.0" class="subtitle" text-anchor="start">Frozen probe outputs on test episodes; exact matching fixes round, previous outcome, and loss streak</text>
<text x="45.0" y="123.0" class="panel" text-anchor="start">A. Future-return prediction</text>
<line x1="107.0" y1="487.0" x2="482.0" y2="487.0" stroke="#E5E7EB" stroke-width="1"/>
<text x="98.0" y="491.0" class="axis" text-anchor="end">0</text>
<line x1="107.0" y1="317.0" x2="482.0" y2="317.0" stroke="#E5E7EB" stroke-width="1"/>
<text x="98.0" y="321.0" class="axis" text-anchor="end">0.18</text>
<line x1="107.0" y1="147.0" x2="482.0" y2="147.0" stroke="#E5E7EB" stroke-width="1"/>
<text x="98.0" y="151.0" class="axis" text-anchor="end">0.35</text>
<line x1="150.3" y1="487.0" x2="150.3" y2="492.0" stroke="#64748B" stroke-width="1"/>
<text x="150.3" y="507.0" class="axis" text-anchor="middle">History</text>
<line x1="222.4" y1="487.0" x2="222.4" y2="492.0" stroke="#64748B" stroke-width="1"/>
<text x="222.4" y="507.0" class="axis" text-anchor="middle">Sparse</text>
<line x1="294.5" y1="487.0" x2="294.5" y2="492.0" stroke="#64748B" stroke-width="1"/>
<text x="294.5" y="507.0" class="axis" text-anchor="middle">Full</text>
<line x1="366.6" y1="487.0" x2="366.6" y2="492.0" stroke="#64748B" stroke-width="1"/>
<text x="366.6" y="507.0" class="axis" text-anchor="middle">Hist.+sparse</text>
<line x1="438.7" y1="487.0" x2="438.7" y2="492.0" stroke="#64748B" stroke-width="1"/>
<text x="438.7" y="507.0" class="axis" text-anchor="middle">Hist.+full</text>
<line x1="107.0" y1="147.0" x2="107.0" y2="487.0" stroke="#64748B" stroke-width="1.2"/>
<line x1="107.0" y1="487.0" x2="482.0" y2="487.0" stroke="#64748B" stroke-width="1.2"/>
<text x="294.5" y="530.0" class="axis" text-anchor="middle">Predictor</text>
<text x="60.0" y="317.0" class="axis" text-anchor="middle" transform="rotate(-90 60 317.0)">Reconstructed return R²</text>
<rect x="126.3" y="395.3" width="48.0" height="91.7" fill="#64748B" fill-opacity="0.9" stroke="none"/>
<text x="150.3" y="387.3" class="axis" text-anchor="middle">0.09</text>
<rect x="198.4" y="247.4" width="48.0" height="239.6" fill="#7A5195" fill-opacity="0.9" stroke="none"/>
<text x="222.4" y="239.4" class="axis" text-anchor="middle">0.25</text>
<rect x="270.5" y="222.1" width="48.0" height="264.9" fill="#E69F00" fill-opacity="0.9" stroke="none"/>
<text x="294.5" y="214.1" class="axis" text-anchor="middle">0.27</text>
<rect x="342.6" y="217.1" width="48.0" height="269.9" fill="#0072B2" fill-opacity="0.9" stroke="none"/>
<text x="366.6" y="209.1" class="axis" text-anchor="middle">0.28</text>
<rect x="414.7" y="198.9" width="48.0" height="288.1" fill="#009E73" fill-opacity="0.9" stroke="none"/>
<text x="438.7" y="190.9" class="axis" text-anchor="middle">0.30</text>
<text x="520.0" y="123.0" class="panel" text-anchor="start">B. Within identical recent states</text>
<line x1="582.0" y1="447.8" x2="957.0" y2="447.8" stroke="#E5E7EB" stroke-width="1"/>
<text x="573.0" y="451.8" class="axis" text-anchor="end">History → return</text>
<line x1="582.0" y1="382.4" x2="957.0" y2="382.4" stroke="#E5E7EB" stroke-width="1"/>
<text x="573.0" y="386.4" class="axis" text-anchor="end">Sparse → return</text>
<line x1="582.0" y1="317.0" x2="957.0" y2="317.0" stroke="#E5E7EB" stroke-width="1"/>
<text x="573.0" y="321.0" class="axis" text-anchor="end">Full → return</text>
<line x1="582.0" y1="251.6" x2="957.0" y2="251.6" stroke="#E5E7EB" stroke-width="1"/>
<text x="573.0" y="255.6" class="axis" text-anchor="end">Sparse → persistence</text>
<line x1="582.0" y1="186.2" x2="957.0" y2="186.2" stroke="#E5E7EB" stroke-width="1"/>
<text x="573.0" y="190.2" class="axis" text-anchor="end">Full → persistence</text>
<line x1="582.0" y1="487.0" x2="582.0" y2="492.0" stroke="#64748B" stroke-width="1"/>
<text x="582.0" y="507.0" class="axis" text-anchor="middle">-0.3</text>
<line x1="696.3" y1="487.0" x2="696.3" y2="492.0" stroke="#64748B" stroke-width="1"/>
<text x="696.3" y="507.0" class="axis" text-anchor="middle">0</text>
<line x1="957.0" y1="487.0" x2="957.0" y2="492.0" stroke="#64748B" stroke-width="1"/>
<text x="957.0" y="507.0" class="axis" text-anchor="middle">0.7</text>
<line x1="582.0" y1="147.0" x2="582.0" y2="487.0" stroke="#64748B" stroke-width="1.2"/>
<line x1="582.0" y1="487.0" x2="957.0" y2="487.0" stroke="#64748B" stroke-width="1.2"/>
<text x="769.5" y="530.0" class="axis" text-anchor="middle">Standardized coefficient</text>
<text x="535.0" y="317.0" class="axis" text-anchor="middle" transform="rotate(-90 535 317.0)">Outcome</text>
<line x1="696.3" y1="147.0" x2="696.3" y2="487.0" stroke="#6B7280" stroke-width="1.2" stroke-dasharray="5 5"/>
<line x1="757.1" y1="447.8" x2="851.5" y2="447.8" stroke="#6B7280" stroke-width="2"/>
<circle cx="804.3" cy="447.8" r="5.0" fill="#6B7280"/>
<line x1="788.1" y1="382.4" x2="934.9" y2="382.4" stroke="#7A5195" stroke-width="2"/>
<circle cx="861.5" cy="382.4" r="5.0" fill="#7A5195"/>
<line x1="797.3" y1="317.0" x2="942.5" y2="317.0" stroke="#E69F00" stroke-width="2"/>
<circle cx="869.9" cy="317.0" r="5.0" fill="#E69F00"/>
<line x1="600.5" y1="251.6" x2="741.3" y2="251.6" stroke="#7A5195" stroke-width="2"/>
<circle cx="670.9" cy="251.6" r="5.0" fill="#7A5195"/>
<line x1="596.5" y1="186.2" x2="750.8" y2="186.2" stroke="#E69F00" stroke-width="2"/>
<circle cx="673.6" cy="186.2" r="5.0" fill="#E69F00"/>
<text x="995.0" y="123.0" class="panel" text-anchor="start">C. Older-history gradient</text>
<line x1="1057.0" y1="487.0" x2="1432.0" y2="487.0" stroke="#E5E7EB" stroke-width="1"/>
<text x="1048.0" y="491.0" class="axis" text-anchor="end">-1.5</text>
<line x1="1057.0" y1="305.2" x2="1432.0" y2="305.2" stroke="#E5E7EB" stroke-width="1"/>
<text x="1048.0" y="309.2" class="axis" text-anchor="end">0</text>
<line x1="1057.0" y1="147.0" x2="1432.0" y2="147.0" stroke="#E5E7EB" stroke-width="1"/>
<text x="1048.0" y="151.0" class="axis" text-anchor="end">1.3</text>
<line x1="1057.0" y1="487.0" x2="1057.0" y2="492.0" stroke="#64748B" stroke-width="1"/>
<text x="1057.0" y="507.0" class="axis" text-anchor="middle">-2.1</text>
<line x1="1254.5" y1="487.0" x2="1254.5" y2="492.0" stroke="#64748B" stroke-width="1"/>
<text x="1254.5" y="507.0" class="axis" text-anchor="middle">0</text>
<line x1="1432.0" y1="487.0" x2="1432.0" y2="492.0" stroke="#64748B" stroke-width="1"/>
<text x="1432.0" y="507.0" class="axis" text-anchor="middle">1.9</text>
<line x1="1057.0" y1="147.0" x2="1057.0" y2="487.0" stroke="#64748B" stroke-width="1.2"/>
<line x1="1057.0" y1="487.0" x2="1432.0" y2="487.0" stroke="#64748B" stroke-width="1.2"/>
<text x="1244.5" y="530.0" class="axis" text-anchor="middle">Older history (within-stratum z)</text>
<text x="1010.0" y="317.0" class="axis" text-anchor="middle" transform="rotate(-90 1010 317.0)">Within-stratum z</text>
<line x1="1057.0" y1="305.2" x2="1432.0" y2="305.2" stroke="#6B7280" stroke-width="1" stroke-dasharray="5 5"/>
<polyline points="1070.9,359.5 1173.3,360.6 1218.6,370.4 1240.9,352.1 1252.0,325.6 1261.6,297.9 1272.3,252.6 1296.8,236.9 1340.2,234.9 1418.1,261.4" fill="none" stroke="#009E73" stroke-width="2" stroke-linejoin="round" stroke-linecap="round"/>
<circle cx="1070.9" cy="359.5" r="3.0" fill="#009E73"/>
<circle cx="1173.3" cy="360.6" r="3.0" fill="#009E73"/>
<circle cx="1218.6" cy="370.4" r="3.0" fill="#009E73"/>
<circle cx="1240.9" cy="352.1" r="3.0" fill="#009E73"/>
<circle cx="1252.0" cy="325.6" r="3.0" fill="#009E73"/>
<circle cx="1261.6" cy="297.9" r="3.0" fill="#009E73"/>
<circle cx="1272.3" cy="252.6" r="3.0" fill="#009E73"/>
<circle cx="1296.8" cy="236.9" r="3.0" fill="#009E73"/>
<circle cx="1340.2" cy="234.9" r="3.0" fill="#009E73"/>
<circle cx="1418.1" cy="261.4" r="3.0" fill="#009E73"/>
<polyline points="1070.9,468.2 1173.3,437.3 1218.6,402.3 1240.9,348.1 1252.0,310.2 1261.6,283.4 1272.3,230.7 1296.8,206.0 1340.2,185.0 1418.1,180.8" fill="none" stroke="#7A5195" stroke-width="2" stroke-linejoin="round" stroke-linecap="round"/>
<circle cx="1070.9" cy="468.2" r="3.0" fill="#7A5195"/>
<circle cx="1173.3" cy="437.3" r="3.0" fill="#7A5195"/>
<circle cx="1218.6" cy="402.3" r="3.0" fill="#7A5195"/>
<circle cx="1240.9" cy="348.1" r="3.0" fill="#7A5195"/>
<circle cx="1252.0" cy="310.2" r="3.0" fill="#7A5195"/>
<circle cx="1261.6" cy="283.4" r="3.0" fill="#7A5195"/>
<circle cx="1272.3" cy="230.7" r="3.0" fill="#7A5195"/>
<circle cx="1296.8" cy="206.0" r="3.0" fill="#7A5195"/>
<circle cx="1340.2" cy="185.0" r="3.0" fill="#7A5195"/>
<circle cx="1418.1" cy="180.8" r="3.0" fill="#7A5195"/>
<polyline points="1070.9,468.7 1173.3,446.4 1218.6,418.1 1240.9,352.2 1252.0,303.6 1261.6,275.7 1272.3,239.4 1296.8,212.4 1340.2,165.3 1418.1,170.1" fill="none" stroke="#E69F00" stroke-width="2" stroke-linejoin="round" stroke-linecap="round"/>
<circle cx="1070.9" cy="468.7" r="3.0" fill="#E69F00"/>
<circle cx="1173.3" cy="446.4" r="3.0" fill="#E69F00"/>
<circle cx="1218.6" cy="418.1" r="3.0" fill="#E69F00"/>
<circle cx="1240.9" cy="352.2" r="3.0" fill="#E69F00"/>
<circle cx="1252.0" cy="303.6" r="3.0" fill="#E69F00"/>
<circle cx="1261.6" cy="275.7" r="3.0" fill="#E69F00"/>
<circle cx="1272.3" cy="239.4" r="3.0" fill="#E69F00"/>
<circle cx="1296.8" cy="212.4" r="3.0" fill="#E69F00"/>
<circle cx="1340.2" cy="165.3" r="3.0" fill="#E69F00"/>
<circle cx="1418.1" cy="170.1" r="3.0" fill="#E69F00"/>
<polyline points="1070.9,274.2 1173.3,260.5 1218.6,339.1 1240.9,294.5 1252.0,295.0 1261.6,308.9 1272.3,291.4 1296.8,308.7 1340.2,313.1 1418.1,366.5" fill="none" stroke="#64748B" stroke-width="2" stroke-linejoin="round" stroke-linecap="round"/>
<circle cx="1070.9" cy="274.2" r="3.0" fill="#64748B"/>
<circle cx="1173.3" cy="260.5" r="3.0" fill="#64748B"/>
<circle cx="1218.6" cy="339.1" r="3.0" fill="#64748B"/>
<circle cx="1240.9" cy="294.5" r="3.0" fill="#64748B"/>
<circle cx="1252.0" cy="295.0" r="3.0" fill="#64748B"/>
<circle cx="1261.6" cy="308.9" r="3.0" fill="#64748B"/>
<circle cx="1272.3" cy="291.4" r="3.0" fill="#64748B"/>
<circle cx="1296.8" cy="308.7" r="3.0" fill="#64748B"/>
<circle cx="1340.2" cy="313.1" r="3.0" fill="#64748B"/>
<circle cx="1418.1" cy="366.5" r="3.0" fill="#64748B"/>
<line x1="1061.0" y1="165.0" x2="1083.0" y2="165.0" stroke="#009E73" stroke-width="3"/>
<text x="1089.0" y="169.0" class="legend" text-anchor="start">Future return</text>
<line x1="1251.0" y1="165.0" x2="1273.0" y2="165.0" stroke="#7A5195" stroke-width="3"/>
<text x="1279.0" y="169.0" class="legend" text-anchor="start">Sparse probe</text>
<line x1="1061.0" y1="185.0" x2="1083.0" y2="185.0" stroke="#E69F00" stroke-width="3"/>
<text x="1089.0" y="189.0" class="legend" text-anchor="start">Full probe</text>
<line x1="1251.0" y1="185.0" x2="1273.0" y2="185.0" stroke="#64748B" stroke-width="3"/>
<text x="1279.0" y="189.0" class="legend" text-anchor="start">Persistence</text>
<text x="1450.0" y="595.0" class="note" text-anchor="end">Point estimates impute zero for the omitted final reward of 11 capped episodes; exhaustive ±2/+3 sensitivity preserves the conclusions.</text>
</svg>
